<?xml version="1.0" standalone="no"?>
<!DOCTYPE svg PUBLIC "-//W3C//DTD SVG 20010904//EN"
 "http://www.w3.org/TR/2001/REC-SVG-20010904/DTD/svg10.dtd">
<svg version="1.0" xmlns="http://www.w3.org/2000/svg"
 width="299.000000pt" height="299.000000pt" viewBox="0 0 299.000000 299.000000"
 preserveAspectRatio="xMidYMid meet">
<metadata>
Created by potrace 1.14, written by Peter Selinger 2001-2017
</metadata>
<g transform="translate(0.000000,299.000000) scale(0.100000,-0.100000)"
fill="#000000" stroke="none">
<path d="M150 2864 c-18 -8 -32 -23 -36 -40 -6 -22 -9 -309 -5 -426 l1 -28
223 0 222 1 150 217 c83 119 160 232 172 252 l22 37 -360 -1 c-263 0 -367 -3
-389 -12z"/>
<path d="M1085 2846 c-13 -17 -75 -105 -139 -196 -63 -91 -119 -170 -123 -175
-4 -6 -23 -32 -41 -58 l-33 -47 145 0 145 0 69 98 c108 154 277 396 280 402 1
3 -61 6 -139 6 l-140 1 -24 -31z"/>
<path d="M1584 2861 c-8 -9 -70 -95 -137 -191 -109 -157 -151 -218 -196 -281
-13 -19 -10 -19 132 -19 l146 0 33 44 c53 71 318 454 318 459 0 2 -63 3 -140
3 -115 0 -143 -2 -156 -15z"/>
<path d="M1905 2629 c-96 -136 -175 -250 -175 -253 0 -3 66 -6 148 -6 l147 1
27 42 c14 23 92 136 172 251 80 114 146 209 146 210 0 1 -65 2 -145 2 l-145 0
-175 -247z"/>
<path d="M2572 2871 c-9 -5 -121 -158 -192 -261 -6 -8 -44 -62 -85 -120 -41
-57 -75 -107 -75 -110 0 -3 149 -5 330 -5 l330 0 0 226 c0 291 11 272 -167
275 -72 1 -135 -1 -141 -5z"/>
<path d="M109 2193 c0 -10 -1 -471 -1 -1026 -1 -1086 -3 -1047 51 -1065 20 -6
2638 -10 2674 -3 4 0 16 10 27 21 20 20 20 33 20 1055 l0 1035 -1385 0 c-1312
0 -1385 -1 -1386 -17z m1377 -449 c187 -119 407 -260 491 -313 102 -65 156
-104 163 -122 21 -48 4 -75 -84 -131 -44 -28 -139 -90 -211 -137 -71 -47 -134
-88 -140 -90 -5 -2 -41 -25 -80 -51 -38 -26 -157 -103 -262 -171 -106 -68
-199 -128 -206 -133 -22 -15 -85 2 -99 27 -9 17 -12 175 -13 652 l-1 630 27
28 c15 15 38 27 52 27 15 0 158 -85 363 -216z"/>
</g>
</svg>
